<?xml version="1.0" encoding="UTF-8" standalone="no"?>
<svg
   xmlns:dc="http://purl.org/dc/elements/1.1/"
   xmlns:cc="http://creativecommons.org/ns#"
   xmlns:rdf="http://www.w3.org/1999/02/22-rdf-syntax-ns#"
   xmlns:svg="http://www.w3.org/2000/svg"
   xmlns="http://www.w3.org/2000/svg"
   xmlns:xlink="http://www.w3.org/1999/xlink"
   id="svg8"
   version="1.1"
   viewBox="0 0 145.12688 96.750778"
   height="96.750778mm"
   width="145.12688mm">
  <defs
     id="defs2">
    <rect
       x="59.968311"
       y="106.05321"
       width="118.43645"
       height="40.979527"
       id="rect1133" />
    <rect
       x="23.056547"
       y="23.056547"
       width="142.66933"
       height="33.004799"
       id="rect1127" />
    <linearGradient
       id="linearGradient1097">
      <stop
         style="stop-color:#ffffff;stop-opacity:1"
         offset="0"
         id="stop1093" />
      <stop
         style="stop-color:#ffffff;stop-opacity:0"
         offset="1"
         id="stop1095" />
    </linearGradient>
    <linearGradient
       xlink:href="#linearGradient1097"
       id="linearGradient1099"
       x1="98.136177"
       y1="278.24823"
       x2="619.00653"
       y2="278.24823"
       gradientUnits="userSpaceOnUse"
       gradientTransform="matrix(0.25556787,-0.0684792,0.0684792,0.25556787,-15.672602,28.361475)" />
  </defs>
  <metadata
     id="metadata5">
    <rdf:RDF>
      <cc:Work
         rdf:about="">
        <dc:format>image/svg+xml</dc:format>
        <dc:type
           rdf:resource="http://purl.org/dc/dcmitype/StillImage" />
        <dc:title></dc:title>
      </cc:Work>
    </rdf:RDF>
  </metadata>
  <g
     id="layer1"
     transform="translate(-27.336294,-25.366706)">
    <path
       id="path1077"
       style="font-variation-settings:normal;opacity:1;vector-effect:none;fill:url(#linearGradient1099);fill-opacity:1;fill-rule:evenodd;stroke:#aac789;stroke-width:1;stroke-linecap:butt;stroke-linejoin:miter;stroke-miterlimit:4;stroke-dasharray:none;stroke-dashoffset:0;stroke-opacity:1;stop-color:#000000;stop-opacity:1"
       d="M 34.071875,91.337926 C 33.01928,80.350985 32.222863,70.320123 33.985311,69.839076 35.747737,69.357933 40.077877,78.459641 44.659676,88.500934 47.030408,93.696395 49.332564,98.635921 51.247164,102.12908 M 50.256723,108.65542 55.334113,107.16267 C 57.100988,106.69814 56.300147,96.650756 55.247576,85.663913 54.194885,74.677 53.39847,64.646137 55.16092,64.165088 56.923342,63.683946 61.253483,72.785654 65.835379,82.82692 68.206062,88.022395 70.508192,92.961927 72.422779,96.455086 M 71.943475,102.84447 76.509718,101.48868 C 78.276594,101.02415 77.475751,90.976769 76.423183,79.989928 75.370587,69.002987 74.574074,58.972149 76.336523,58.491101 78.098949,58.00996 82.429089,67.111668 87.010983,77.152933 89.381714,82.348396 91.683846,87.287928 93.59842,90.781089 M 92.838738,96.854291 97.685323,95.814696 C 99.452199,95.350165 98.651357,85.302783 97.598786,74.315941 96.546191,63.329001 95.749782,53.298138 97.512145,52.817113 99.274579,52.335969 103.60511,61.43757 108.18613,71.479071 110.55714,76.674973 112.85953,81.614913 114.77428,85.108112 M 113.87834,91.256957 118.86087,90.140727 C 120.62783,89.676171 119.82708,79.628765 118.77461,68.641897 117.72211,57.65493 116.92579,47.624044 118.68738,47.143225 120.44989,46.662059 124.78014,55.763734 129.36212,65.804983 131.73291,71.000429 134.03511,75.939941 135.94976,79.433083 M 134.87127,85.63084 140.03685,84.466639 C 141.80382,84.002084 141.00308,73.954674 139.94964,62.968065 138.89714,51.9811 138.10083,41.950209 139.86336,41.469135 141.62589,40.987969 145.95613,50.089649 150.53813,60.130886 152.90866,65.325808 155.21064,70.264847 157.12505,73.757972 M 156.26824,80.052849 161.21189,78.792813 C 162.97886,78.328249 162.1781,68.280848 161.12565,57.29397 M 28.960512,92.707511 C 27.907918,81.720572 27.111501,71.689707 28.873951,71.20866 L 33.744451,69.765265 M 32.962904,76.242666 C 34.877288,79.73743 37.179158,84.678365 39.548315,89.870518 44.130186,99.911687 48.455902,108.99688 50.222753,108.53225 51.989628,108.06772 51.188784,98.02034 50.136214,87.033499 49.083521,76.046585 48.287105,66.015719 50.049557,65.534675 L 55.069475,64.2324 M 54.138766,70.569131 C 56.053114,74.063863 58.354914,79.004591 60.724018,84.196505 65.30579,94.2377 69.631507,103.32289 71.398357,102.85827 73.165235,102.39374 72.36439,92.346355 71.311819,81.359513 70.259225,70.372573 69.462712,60.341733 71.225161,59.860689 L 76.503242,58.489239 M 75.314373,64.895144 C 77.228719,68.389875 79.530518,73.330604 81.899623,78.522519 86.481492,88.563689 90.807112,97.648907 92.573964,97.184282 94.340839,96.71975 93.539997,86.672368 92.487425,75.685526 91.434826,64.69859 91.577811,54.106934 93.340162,53.625917 L 97.683866,52.813366 M 96.48981,59.220663 C 98.404202,62.715424 100.70598,67.656392 103.07474,72.848665 107.65671,82.889808 111.98252,91.974973 113.74948,91.510318 115.51644,91.045765 114.71569,80.998359 113.66322,70.011491 112.61072,59.024525 111.81441,48.993628 113.57599,48.512815 L 118.98387,47.107805 M 117.66591,53.548302 C 119.5802,57.042955 121.88182,61.9832 124.25074,67.174568 128.8327,77.215717 133.15851,86.300881 134.92546,85.836225 136.69244,85.371665 135.89169,75.324268 134.83825,64.337656 133.78575,53.350693 132.98943,43.319801 134.75198,42.838729 L 139.86628,41.372294 M 138.84107,47.872696 C 140.75552,51.367441 143.05746,56.308359 145.42674,61.50048 150.00869,71.54163 154.3345,80.626791 156.10048,80.162395 157.86746,79.697839 157.06671,69.650438 156.01424,58.663569" />
    <path
       id="path1077-2"
       style="font-variation-settings:normal;opacity:1;vector-effect:none;fill:#00ffff;fill-opacity:0;fill-rule:evenodd;stroke:#aac789;stroke-width:1;stroke-linecap:butt;stroke-linejoin:miter;stroke-miterlimit:4;stroke-dasharray:none;stroke-dashoffset:0;stroke-opacity:1;stop-color:#000000;stop-opacity:1"
       d="M 43.783461,88.735715 C 42.730865,77.748775 41.934446,67.717912 43.696898,67.236865 45.459322,66.755723 49.789463,75.857429 54.371261,85.898722 56.741993,91.094183 59.044149,96.033708 60.958749,99.526865 M 59.96831,106.05321 65.045698,104.56046 C 66.812573,104.09593 66.011731,94.048545 64.959162,83.061704 63.90647,72.074789 63.110054,62.043927 64.872504,61.562877 66.634927,61.081736 70.965067,70.183443 75.546963,80.22471 77.917646,85.420183 80.219778,90.359717 82.134363,93.852875 M 81.65506,100.24226 86.221302,98.886473 C 87.988179,98.421941 87.187336,88.374558 86.134767,77.387717 85.082172,66.400777 84.285659,56.369941 86.048107,55.888894 87.810538,55.407746 92.140675,64.509455 96.722568,74.550725 99.093299,79.746184 101.39543,84.685717 103.31001,88.178878 M 102.55032,94.252079 107.39691,93.212485 C 109.1638,92.747952 108.36297,82.700563 107.31041,71.713719 106.25782,60.726778 105.46143,50.695907 107.22379,50.214887 108.98623,49.733736 113.31675,58.835346 117.89777,68.876846 120.26877,74.072755 122.57118,79.012683 124.48592,82.505885 M 123.58999,88.654721 128.5725,87.538497 C 130.33948,87.073948 129.53873,77.026534 128.48625,66.039672 127.43376,55.0527 126.63744,45.021813 128.39902,44.540998 130.16154,44.059834 134.49177,53.161516 139.07377,63.202752 141.44457,68.398194 143.74676,73.337713 145.6614,76.830853 M 144.58292,83.028603 149.74849,81.864416 C 151.51546,81.399862 150.71473,71.352449 149.66128,60.36584 148.60878,49.378874 147.81247,39.347984 149.57501,38.866906 151.33753,38.385744 155.66779,47.487412 160.24977,57.528665 162.62031,62.72358 164.92228,67.662614 166.83669,71.155737 M 165.97988,77.450617 170.92352,76.190569 C 172.6905,75.726026 171.88974,65.678626 170.83728,54.691747 M 38.672099,90.105299 C 37.619503,79.11836 36.823086,69.087496 38.585537,68.60645 L 43.456035,67.163053 M 42.674488,73.640456 C 44.588872,77.135217 46.890744,82.076153 49.259902,87.268307 53.841772,97.309475 58.167488,106.39467 59.934337,105.93004 61.701213,105.46551 60.900369,95.418131 59.847801,84.431288 58.795108,73.444373 57.998693,63.413509 59.761142,62.932464 L 64.781057,61.630189 M 63.850351,67.966921 C 65.764699,71.461653 68.066498,76.402378 70.435603,81.594296 75.017375,91.635489 79.343091,100.72068 81.109942,100.25606 82.876818,99.791526 82.075974,89.744144 81.023403,78.757301 79.97081,67.770362 79.174296,57.739524 80.936747,57.258477 L 86.214827,55.887027 M 85.025958,62.292934 C 86.940304,65.787666 89.242104,70.728394 91.611207,75.920309 96.193079,85.961478 100.5187,95.046696 102.28555,94.58207 104.05242,94.117541 103.25157,84.070158 102.19902,73.083311 101.14643,62.096373 101.28943,51.504715 103.05179,51.023693 L 107.39551,50.21114 M 106.20145,56.618437 C 108.11584,60.113199 110.41763,65.054163 112.78638,70.246439 117.36835,80.287582 121.69416,89.372748 123.46111,88.908093 125.22808,88.44354 124.42734,78.396127 123.37486,67.409264 122.32236,56.422299 121.52605,46.391405 123.28763,45.910587 L 128.69551,44.50558 M 127.37755,50.946077 C 129.29184,54.440726 131.59346,59.380973 133.96238,64.572346 138.54434,74.613486 142.87015,83.698658 144.6371,83.234002 146.40407,82.769448 145.60334,72.722043 144.54989,61.735433 143.49739,50.748468 142.70107,40.717576 144.46362,40.236504 L 149.57792,38.770069 M 148.55272,45.270465 C 150.46716,48.765214 152.76911,53.706129 155.13839,58.898253 159.72033,68.939399 164.04616,78.024573 165.81213,77.560167 167.57911,77.095609 166.77836,67.048206 165.72588,56.061345" />
    <text
       xml:space="preserve"
       id="text1125"
       style="font-weight:bold;font-size:22.5778px;line-height:0;font-family:Roboto;-inkscape-font-specification:'Roboto Bold';text-align:center;letter-spacing:0px;word-spacing:0px;white-space:pre;shape-inside:url(#rect1127);fill:#aac789;fill-opacity:1;fill-rule:nonzero;stroke:#aac789;stroke-opacity:1"
       transform="rotate(-15,167.89275,66.164183)"><tspan
         x="45.416074"
         y="29.706267"><tspan
           style="font-size:22.5778px;fill:#aac789;fill-opacity:1;fill-rule:nonzero;stroke:#aac789;stroke-opacity:1">BOSSCon</tspan></tspan></text>
    <text
       xml:space="preserve"
       id="text1131"
       style="font-weight:bold;font-size:25.4px;line-height:0;font-family:Roboto;-inkscape-font-specification:'Roboto Bold';text-align:center;letter-spacing:0px;word-spacing:0px;white-space:pre;shape-inside:url(#rect1133);fill:#aac789;fill-opacity:1"
       transform="rotate(-15,119.35149,149.50581)"><tspan
         x="90.041016"
         y="113.53356"><tspan
           style="font-size:25.4px;fill:#aac789;fill-opacity:1">2022</tspan></tspan></text>
  </g>
</svg>
